<svg width="345" height="350" viewBox="0 0 345 350" fill="none" xmlns="http://www.w3.org/2000/svg">
<path d="M275.794 104.437L248.504 128.562C238.924 115.203 229.168 108.523 219.236 108.523C214.402 108.523 210.447 109.842 207.371 112.479C204.295 115.027 202.757 117.928 202.757 121.18C202.757 124.432 203.855 127.508 206.053 130.408C209.041 134.275 218.05 142.581 233.079 155.325C247.142 167.103 255.667 174.529 258.655 177.605C266.126 185.164 271.399 192.415 274.476 199.358C277.64 206.214 279.222 213.729 279.222 221.902C279.222 237.811 273.729 250.95 262.742 261.321C251.756 271.692 237.43 276.878 219.764 276.878C205.965 276.878 193.924 273.494 183.641 266.727C173.445 259.959 164.7 249.324 157.405 234.822L188.387 216.102C197.703 233.24 208.426 241.81 220.555 241.81C226.883 241.81 232.2 239.964 236.507 236.272C240.813 232.581 242.967 228.318 242.967 223.484C242.967 219.09 241.341 214.695 238.089 210.301C234.837 205.906 227.674 199.183 216.6 190.13C195.506 172.903 181.883 159.632 175.73 150.315C169.578 140.911 166.502 131.551 166.502 122.234C166.502 108.787 171.6 97.2734 181.795 87.6934C192.078 78.0254 204.734 73.1914 219.764 73.1914C229.432 73.1914 238.616 75.4326 247.317 79.915C256.106 84.3975 265.599 92.5713 275.794 104.437Z" fill="#2D7CB4"/>
<path d="M342 128H309V270H342V128Z" fill="#2E5A77"/>
<path d="M345 95L309 116V74L345 95Z" fill="#DB2625"/>
<path d="M136 192L91 166V218L136 192Z" fill="#2E5A77"/>
<path d="M46 192L91 166V218L46 192Z" fill="#6294AD"/>
<path d="M136 88L91 62V114L136 88Z" fill="#2E5A77"/>
<path d="M46 88L91 62V114L46 88Z" fill="#6294AD"/>
<path d="M136 140L91 114V166L136 140Z" fill="#DB2625"/>
<path d="M46 140L91 114V166L46 140Z" fill="#2D7CB4"/>
<path d="M91 114L136 88V140L91 114Z" fill="#2D7CB4"/>
<path d="M1 114L46 88V140L1 114Z" fill="#2D7CB4"/>
<path d="M46 88L1 114L1 62L46 88Z" fill="#DB2625"/>
<path d="M91 62L46 88L46 36L91 62Z" fill="#2E5A77"/>
<path d="M46 244L1 218V270L46 244Z" fill="#2E5A77"/>
<path d="M91 270L46 244V296L91 270Z" fill="#DB2625"/>
<path d="M1 218L46 244L46 192L1 218Z" fill="#6294AD"/>
<path d="M91 166L46 192L46 140L91 166Z" fill="#2E5A77"/>
<path d="M91 218L136 192V244L91 218Z" fill="#2D7CB4"/>
<path d="M136 244L91 218V270L136 244Z" fill="#DB2625"/>
<path d="M46 244L91 218V270L46 244Z" fill="#2D7CB4"/>
<path d="M13.624 303.008H23.032V299.984H0.52V303.008H9.784V332H13.624V303.008ZM107.187 314.144V303.008H118.995V299.984H103.346V332H120.723V328.976H107.187V317.168H118.995V314.144H107.187ZM214.863 299.984H211.311L198.543 332H202.671L206.511 321.632H219.519L223.503 332H227.631L214.863 299.984ZM218.271 318.512H207.759L212.943 304.688L218.271 318.512ZM340.317 299.984H336.477L324.285 326.624L312.045 299.984H308.205V332H311.901V308.144L322.893 332H325.629L336.621 308.144V332H340.317V299.984Z" fill="#DB2625"/>
<path d="M13.624 303.008V302.508H13.124V303.008H13.624ZM23.032 303.008V303.508H23.532V303.008H23.032ZM23.032 299.984H23.532V299.484H23.032V299.984ZM0.52 299.984V299.484H0.02V299.984H0.52ZM0.52 303.008H0.02V303.508H0.52V303.008ZM9.784 303.008H10.284V302.508H9.784V303.008ZM9.784 332H9.284V332.5H9.784V332ZM13.624 332V332.5H14.124V332H13.624ZM13.624 303.508H23.032V302.508H13.624V303.508ZM23.532 303.008V299.984H22.532V303.008H23.532ZM23.032 299.484H0.52V300.484H23.032V299.484ZM0.02 299.984V303.008H1.02V299.984H0.02ZM0.52 303.508H9.784V302.508H0.52V303.508ZM9.284 303.008V332H10.284V303.008H9.284ZM9.784 332.5H13.624V331.5H9.784V332.5ZM14.124 332V303.008H13.124V332H14.124ZM107.187 314.144H106.687V314.644H107.187V314.144ZM107.187 303.008V302.508H106.687V303.008H107.187ZM118.995 303.008V303.508H119.495V303.008H118.995ZM118.995 299.984H119.495V299.484H118.995V299.984ZM103.346 299.984V299.484H102.846V299.984H103.346ZM103.346 332H102.846V332.5H103.346V332ZM120.723 332V332.5H121.223V332H120.723ZM120.723 328.976H121.223V328.476H120.723V328.976ZM107.187 328.976H106.687V329.476H107.187V328.976ZM107.187 317.168V316.668H106.687V317.168H107.187ZM118.995 317.168V317.668H119.495V317.168H118.995ZM118.995 314.144H119.495V313.644H118.995V314.144ZM107.687 314.144V303.008H106.687V314.144H107.687ZM107.187 303.508H118.995V302.508H107.187V303.508ZM119.495 303.008V299.984H118.495V303.008H119.495ZM118.995 299.484H103.346V300.484H118.995V299.484ZM102.846 299.984V332H103.846V299.984H102.846ZM103.346 332.5H120.723V331.5H103.346V332.5ZM121.223 332V328.976H120.223V332H121.223ZM120.723 328.476H107.187V329.476H120.723V328.476ZM107.687 328.976V317.168H106.687V328.976H107.687ZM107.187 317.668H118.995V316.668H107.187V317.668ZM119.495 317.168V314.144H118.495V317.168H119.495ZM118.995 313.644H107.187V314.644H118.995V313.644ZM214.863 299.984L215.327 299.799L215.202 299.484H214.863V299.984ZM211.311 299.984V299.484H210.972L210.846 299.799L211.311 299.984ZM198.543 332L198.078 331.815L197.805 332.5H198.543V332ZM202.671 332V332.5H203.019L203.14 332.174L202.671 332ZM206.511 321.632V321.132H206.163L206.042 321.458L206.511 321.632ZM219.519 321.632L219.986 321.453L219.862 321.132H219.519V321.632ZM223.503 332L223.036 332.179L223.159 332.5H223.503V332ZM227.631 332V332.5H228.369L228.095 331.815L227.631 332ZM218.271 318.512V319.012H218.999L218.737 318.332L218.271 318.512ZM207.759 318.512L207.291 318.336L207.037 319.012H207.759V318.512ZM212.943 304.688L213.409 304.508L212.936 303.281L212.475 304.512L212.943 304.688ZM214.863 299.484H211.311V300.484H214.863V299.484ZM210.846 299.799L198.078 331.815L199.007 332.185L211.775 300.169L210.846 299.799ZM198.543 332.5H202.671V331.5H198.543V332.5ZM203.14 332.174L206.98 321.806L206.042 321.458L202.202 331.826L203.14 332.174ZM206.511 322.132H219.519V321.132H206.511V322.132ZM219.052 321.811L223.036 332.179L223.97 331.821L219.986 321.453L219.052 321.811ZM223.503 332.5H227.631V331.5H223.503V332.5ZM228.095 331.815L215.327 299.799L214.398 300.169L227.166 332.185L228.095 331.815ZM218.271 318.012H207.759V319.012H218.271V318.012ZM208.227 318.688L213.411 304.864L212.475 304.512L207.291 318.336L208.227 318.688ZM212.476 304.868L217.804 318.692L218.737 318.332L213.409 304.508L212.476 304.868ZM340.317 299.984H340.817V299.484H340.317V299.984ZM336.477 299.984V299.484H336.156L336.023 299.776L336.477 299.984ZM324.285 326.624L323.831 326.833L324.286 327.824L324.74 326.832L324.285 326.624ZM312.045 299.984L312.5 299.775L312.366 299.484H312.045V299.984ZM308.205 299.984V299.484H307.705V299.984H308.205ZM308.205 332H307.705V332.5H308.205V332ZM311.901 332V332.5H312.401V332H311.901ZM311.901 308.144L312.355 307.935L311.401 308.144H311.901ZM322.893 332L322.439 332.209L322.573 332.5H322.893V332ZM325.629 332V332.5H325.949L326.083 332.209L325.629 332ZM336.621 308.144H337.121L336.167 307.935L336.621 308.144ZM336.621 332H336.121V332.5H336.621V332ZM340.317 332V332.5H340.817V332H340.317ZM340.317 299.484H336.477V300.484H340.317V299.484ZM336.023 299.776L323.831 326.416L324.74 326.832L336.932 300.192L336.023 299.776ZM324.74 326.415L312.5 299.775L311.591 300.193L323.831 326.833L324.74 326.415ZM312.045 299.484H308.205V300.484H312.045V299.484ZM307.705 299.984V332H308.705V299.984H307.705ZM308.205 332.5H311.901V331.5H308.205V332.5ZM312.401 332V308.144H311.401V332H312.401ZM311.447 308.353L322.439 332.209L323.347 331.791L312.355 307.935L311.447 308.353ZM322.893 332.5H325.629V331.5H322.893V332.5ZM326.083 332.209L337.075 308.353L336.167 307.935L325.175 331.791L326.083 332.209ZM336.121 308.144V332H337.121V308.144H336.121ZM336.621 332.5H340.317V331.5H336.621V332.5ZM340.817 332V299.984H339.817V332H340.817Z" fill="#DB2625"/>
</svg>

