<svg width="103" height="199" viewBox="0 0 103 199" fill="none" xmlns="http://www.w3.org/2000/svg">
<path d="M103 119.4L68.6667 99.5V139.3L103 119.4Z" fill="#2E5A77"/>
<path d="M34.3333 119.4L68.6667 99.5V139.3L34.3333 119.4Z" fill="#6294AD"/>
<path d="M103 39.8L68.6667 19.9V59.7L103 39.8Z" fill="#2E5A77"/>
<path d="M34.3333 39.8L68.6667 19.9V59.7L34.3333 39.8Z" fill="#6294AD"/>
<path d="M103 79.6L68.6667 59.7V99.5L103 79.6Z" fill="#DB2625"/>
<path d="M34.3333 79.6L68.6667 59.7V99.5L34.3333 79.6Z" fill="#2D7CB4"/>
<path d="M68.6667 59.7L103 39.8V79.6L68.6667 59.7Z" fill="#2D7CB4"/>
<path d="M0 59.7L34.3333 39.8V79.6L0 59.7Z" fill="#2D7CB4"/>
<path d="M34.3333 39.8L0 59.7V19.9L34.3333 39.8Z" fill="#DB2625"/>
<path d="M68.6667 19.9L34.3333 39.8V0L68.6667 19.9Z" fill="#2E5A77"/>
<path d="M34.3333 159.2L0 139.3V179.1L34.3333 159.2Z" fill="#2E5A77"/>
<path d="M68.6667 179.1L34.3333 159.2V199L68.6667 179.1Z" fill="#DB2625"/>
<path d="M0 139.3L34.3333 159.2V119.4L0 139.3Z" fill="#6294AD"/>
<path d="M68.6667 99.5L34.3333 119.4V79.6L68.6667 99.5Z" fill="#2E5A77"/>
<path d="M68.6667 139.3L103 119.4V159.2L68.6667 139.3Z" fill="#2D7CB4"/>
<path d="M103 159.2L68.6667 139.3V179.1L103 159.2Z" fill="#DB2625"/>
<path d="M34.3333 159.2L68.6667 139.3V179.1L34.3333 159.2Z" fill="#2D7CB4"/>
</svg>
